<svg width="93" height="85" fill="none" xmlns="http://www.w3.org/2000/svg"><path d="m72.558 70.21-.04.001h.04Z" stroke="#fff" stroke-width=".2"/><path fill-rule="evenodd" clip-rule="evenodd" d="M46.26 10.734h.389c5.28-.023 9.478-.527 15.184-3.076.657.494.533.277 1.89 1.532 1.107-1.392 4.102-4.858 6.492-6.088 2.213 3.416 3.495 11.606 2.453 15.471 1.343.103 5.794.9 9.791 2.011-.942 1.606-4.609 5.174-5.645 6.485.57.335 9.829 4.42 12.29 5.552L73.74 39.38l18.78 14.155-22.168-2.163 5.654 7.09-11.712-2.707 3.47 8.508-13.251-5.908-2.584 8.29c-.998 3.204-2.294 3.53-5.67 3.566v-1.359a9.316 9.316 0 0 1-.13-.004c-2.333-.098-4.601-.353-4.711-3.267 1.156 2.455 3.176 2.495 4.714 2.495l.127-.001v-2.503H46.166c-2.829-.02-4.297-.508-5.073-1.91-2.071-3.743-1.598-8.098-3.04-12.473-1.397-4.24-1.574-8.498-6.937-12.145 5.007 1.851 7.009 8.528 9.44 16.55.065-2.373-.038-3.123-.378-4.603.865 1.21 1.492 4.362 1.652 9.14.028.84-.022 1.514.26 2.326.3.861.848 1.313 1.012 1.486-.241-.635-.46-3.452.823-5.105-.159.816-.153 2.5.328 3.408.108-.293.16-.581.564-1.134 0 .74.084 1.15.232 1.165.238.018.263-.407.582-.714.24.42.348.763.55 1.64.027-.121.053-.233.078-.336v-4.762l-.045.062c-1.286-1.442-2.14-3.136-2.29-5.1.703 2.531 2.049 2.132 2.29 2.967a.735.735 0 0 1 .045-.128v-12.24a1.14 1.14 0 0 1-.166-.002c-2.63-.2-5.5-1.733-7.91-2.554 1.064-7.344-4.29-9.287-17.266-9.63-7.087-.189-13.864 1.024-14.748.935 5.383-2.893 12.755-4.719 15.947-8.376-3.1-1.701-7.043-1.934-10.445-3.011l7.277-1.556 3.048 2.023c-1.858-3.224-1.766-8.748-.933-12.839-.223 2.706.193 5.512.992 7.265.02-.672-.007-1.112.357-1.902.003.491-.13 2.513.486 3.996.094-1.223.168-2.41.554-3.219.14.834.03 3.654.938 5.104-.077-1.251-.073-2.352.12-3.23.247.847.552 3.477 1.136 4.146-.16-1.024-.14-2.276.076-2.659.179.824 1.256 3.429 2.32 4.167-1.535.865-2.888.945-4.703.724 1.293 2.327 3.942 1.103 6.16 3.873-1.02-4.52 2.936-5.248 2.702-9.426-.177.678-.473 1.077-.694 1.041-.11-.018-.292-.222-.363-.3-1.287-1.446-4.074-8.391-8.649-13.834.047-.079.095-.155.142-.225 4.473 3.588 7.539 7.66 9.319 11.57 6.135-1.878 9.116 1.598 14.017 1.467.102-.003.193-.003.286-.003v-6.478Zm0 30.986v-5.724c-1.26-.002-2.523 0-3.236 0-.378 0-1.058-.986-1.446-1.56l-1.808 3.18c1.75 1.725 3.96 4.09 6.49 4.104Zm0-15.935v-.764h-1.387c.168-2.341.134-4.5-.14-6.76-.038 2.058-.177 3.836-.724 5.834-.996-1.373-1.746-2.097-3.051-3.063-.572-.422-1.867-.916-2.298-1.49-.342-.457-.02-1.823.185-2.328-.393.362-.578.864-.663 1.522-.094.724.135 1.11.684 1.591.78.681 1.902 1.266 2.837 2.136 1.64 1.523 2.421 3.508.8 4.385-.057.03-.329.135-.521.152-.347.031-.118-.119.01-.191 1.242-.707.586-1.326-.575-1.303-.23.004-.586-.301-.811-.427l-5.843-3.271c-3.042-1.01-5.038 1.538-4.948 3.3.027.538.547 1.214.868 1.509-.355-.621-.233-1.85-.071-1.853.134-.002.167.609.386.99.476.831 1.544 1.435 2.683 1.993.935.458 1.942 1.074 2.908 1.305 1.03.245 2.089.166 2.714-.068-1.604 1.343-5.247.254-7.954-1.708 1.535 2.347 4.392 4.3 8.986 2.377 1.542-.646 1.87-2.924 4.528-2.61-.036-.802.057-1.05.362-1.258h1.034Zm-3.782-.724c-1.228-1.734-2.653-2.669-4.581-3.159 1.516.885 2.864 2.553 4.581 3.159Zm7.38 0c1.228-1.734 2.652-2.669 4.58-3.159-1.516.885-2.863 2.553-4.58 3.159ZM34.594 23.23c1.4.704 2.319 1.117 3.664 1.774.1.049.262.261.075.63-1.12 2.212-4.011.634-3.74-2.404Zm23.22 0c-1.4.704-2.32 1.117-3.665 1.774-.099.049-.262.261-.075.63 1.12 2.212 4.011.634 3.74-2.404Zm9.27 2.988c-.83.72-1.289 2.81-1.336 3.652-1.432.016-3.746.392-6 .958-4.992 1.254-8.084 2.386-6.67 6.265.007-.956.62-3.093 1.992-3.719-.679.803-.747 1.385-.655 2.117.423-1.202 2.04-2.473 4.208-3.296 2.369-.898 5.334-1.349 7.41-1.365.41-.003.665-.24.648-.594-.076-1.585.183-2.854.403-4.018Zm1.882-.604c-.124 1.164-.138 2.83.1 3.672 4.073.047 7.965.838 11.414 1.73-4.153-.456-8.085-.73-12.479-.583-.087-2.012.268-3.49.965-4.819Zm-43.72.604c.83.72 1.29 2.81 1.337 3.652 1.431.016 3.746.392 5.999.958 4.993 1.254 8.084 2.386 6.67 6.265-.007-.956-.62-3.093-1.992-3.719.68.803.748 1.385.656 2.117-.423-1.202-2.04-2.473-4.208-3.296-2.37-.898-5.334-1.349-7.41-1.365-.41-.003-.666-.24-.649-.594.077-1.585-.182-2.854-.403-4.018Zm-1.881-.604c.124 1.164.137 2.83-.1 3.672-4.073.047-7.965.838-11.414 1.73 4.152-.456 8.084-.73 12.478-.583.087-2.012-.268-3.49-.964-4.819Zm22.598 2.525c-2.941-.291-3.495.184-4.702 2.354 1.802-1.703 2.94-2.14 4.702-2.354Zm-1.547 1.69c-.339-.181-.748-.213-1.485-.047-.57.13-1.48 1.398-2.373 1.674-1.077.333-1.412.176-3.627-.098 1.29.764 2.62 1.327 3.508 1.215.737-.093 1.235-.688 2.278-1.195.326-.159.738-.045 1.16-.144.372-.086.878-.49 1.072-.932-.494.308-.842.355-1.688.396-.239.011-.224-.166-.097-.277.377-.33.656-.484 1.252-.592Zm2.004-1.69c2.942-.291 3.496.184 4.702 2.354-1.802-1.703-2.94-2.14-4.702-2.354Zm1.547 1.69c.34-.181.748-.213 1.486-.047.57.13 1.48 1.398 2.372 1.674 1.078.333 1.412.176 3.627-.098-1.289.764-2.619 1.327-3.508 1.215-.737-.093-1.234-.688-2.277-1.195-.327-.159-.739-.045-1.16-.144-.372-.086-.878-.49-1.072-.932.493.308.842.355 1.688.396.238.011.223-.166.096-.277-.377-.33-.655-.484-1.252-.592Zm1.376 15.613c.425-.627.772-.97 1.502-1.184.47-.137.348.027.358.465.047 1.923-.236 3.643-2.03 5.85.046-1.413.22-2.954-.012-4.387-.062-.385-.044-.412.182-.744Zm-.404.224c.021.991-.198 1.505-.955 2.714.021-.729.01-1.523-.096-2.262-.037-.257.062-.614.252-.8.218-.216.79-.083.799.348Zm-1.197.563c.064.925-.253 1.013-1.16 2.14 0-.68.13-1.42-.032-2.11-.056-.24-.059-.573.173-.747.266-.2.99.315 1.019.717Zm-4.686-.787c-.425-.627-.772-.97-1.502-1.184-.47-.137-.348.027-.358.465-.047 1.923.236 3.643 2.03 5.85-.046-1.413-.22-2.954.012-4.387.063-.385.044-.412-.181-.744Zm.404.224c-.02.991.198 1.505.955 2.714-.021-.729-.01-1.523.096-2.262.037-.257-.062-.614-.252-.8-.218-.216-.79-.083-.799.348Zm1.197.563c-.064.925.253 1.013 1.16 2.14 0-.68-.13-1.42.032-2.11.056-.24.059-.573-.173-.747-.266-.2-.99.315-1.019.717Zm-7.757 6.908-3.396-.221-4.277 2.16-2.977 7.779 10.65-9.718Zm-1.028.273c-2.538 1.569-5.318 3.782-7.897 6.277.53-1.254 1.159-2.508 1.688-3.763 2.11-1.28 3.979-2.702 6.21-2.514Zm-.604-4.498-7.234-1.409c-4.796 2.79-5.934 4.795-9.525 9.617l16.759-8.208Zm-2.174.051-4.687-.629c-1.946 1.253-5.514 3.023-7.088 5.78 2.626-1.804 4.012-2.962 6.467-4.232.337-.202.81-.08.278.298l-4.655 3.008 9.685-4.225Zm-1.787-8.088-9.324-3.179-19.01 14.325 28.334-11.146Zm-2.864-.08-6.51-2.334-12.5 9.094c3.802-2.314 7.54-4.729 11.341-7.042.778-.474 1.014-.117.36.373l-6.476 4.46c3.181-1.435 6.275-3.089 9.456-4.524.512-.231.573.15.241.318l-4.412 2.637 8.5-2.983Zm27.209 12.342 3.396-.221 4.277 2.16 2.977 7.779-10.65-9.718Zm1.097.273c2.538 1.569 5.318 3.782 7.897 6.277-.53-1.254-1.16-2.508-1.688-3.763-2.11-1.28-3.979-2.702-6.21-2.514ZM57 48.83l7.233-1.408c4.635 3.232 6.537 4.674 9.324 9.577L56.999 48.83Zm2.14.132 4.688-.629c1.946 1.253 5.514 3.023 7.088 5.78-2.626-1.804-4.012-2.962-6.467-4.232-.337-.202-.81-.08-.278.298l4.655 3.008-9.685-4.225Zm1.689-8.088 9.324-3.179 19.009 14.325-28.333-11.146Zm2.692-.08 6.51-2.334 12.5 9.094c-3.801-2.314-7.54-4.729-11.34-7.042-.778-.474-1.015-.117-.36.373l6.475 4.46c-3.181-1.435-6.275-3.089-9.456-4.524-.512-.231-.573.15-.24.318l4.411 2.637-8.5-2.983ZM30.686 7.657c5.741 2.565 9.956 3.06 15.281 3.075h.293v6.48l.226.003c4.864.102 7.845-3.338 13.956-1.469 1.78-3.91 4.845-7.981 9.318-11.57.049.073.098.151.146.233-4.572 5.441-7.357 12.381-8.644 13.826-.07.079-.252.283-.362.301-.221.036-.517-.363-.694-1.041-.235 4.178 3.72 4.906 2.702 9.426 2.218-2.77 4.867-1.546 6.16-3.873-1.816.221-3.169.14-4.703-.724 1.064-.738 2.141-3.343 2.32-4.167.216.383.235 1.635.075 2.659.585-.67.89-3.3 1.136-4.147.193.879.198 1.98.121 3.231.907-1.45.798-4.27.938-5.104.385.808.46 1.996.553 3.22.617-1.484.484-3.506.486-3.998.365.791.338 1.23.358 1.903.791-1.737 1.207-4.509.997-7.193.82 4.083.899 9.562-.948 12.767l3.049-2.023 7.276 1.556c-3.401 1.077-7.345 1.31-10.445 3.01 3.192 3.658 10.565 5.484 15.948 8.377-.884.089-7.662-1.124-14.749-.936-12.976.344-18.33 2.287-17.267 9.631-2.411.821-5.283 2.356-7.915 2.554l-.038.002v12.238c.32-.688 1.597-.491 2.214-2.989.02 1.592-1.104 3.671-2.214 5.189v4.76c.154-.636.263-.94.47-1.3.318.306.343.731.582.713.147-.014.231-.425.232-1.165.403.553.456.84.564 1.134.481-.908.486-2.592.328-3.408 1.282 1.653 1.064 4.47.822 5.105.165-.174.713-.625 1.012-1.486.283-.812.233-1.486.261-2.326.16-4.778.786-7.93 1.652-9.14-.34 1.48-.443 2.23-.38 4.603 2.433-8.022 4.435-14.699 9.442-16.55-5.364 3.647-5.54 7.904-6.937 12.145-1.442 4.375-.969 8.73-3.04 12.472-.77 1.392-2.222 1.884-5.008 1.911v2.503c1.616-.015 3.616-.338 4.682-2.494.078 2.596-2.451 3.333-4.682 3.271v1.358c-3.375-.034-4.672-.36-5.67-3.565l-2.584-8.29-13.25 5.908 3.47-8.508-11.713 2.708 5.654-7.091L0 53.536l18.779-14.155-15.363-6.76c2.46-1.132 11.719-5.217 12.289-5.552-1.036-1.31-4.703-4.879-5.645-6.485 3.997-1.11 8.448-1.908 9.791-2.01-1.042-3.865.24-12.056 2.453-15.472 2.39 1.23 5.385 4.696 6.492 6.088 1.357-1.255 1.233-1.038 1.89-1.532ZM46.26 25.021v.764h.674c.304.208.398.456.361 1.258 2.658-.314 2.986 1.964 4.528 2.61 4.595 1.922 7.451-.03 8.987-2.377-2.707 1.962-6.35 3.051-7.954 1.708.625.234 1.684.313 2.713.068.966-.23 1.974-.847 2.909-1.305 1.139-.558 2.206-1.162 2.683-1.994.218-.38.252-.99.386-.989.162.002.284 1.232-.071 1.853.32-.295.84-.97.868-1.51.09-1.76-1.906-4.31-4.948-3.3l-5.843 3.272c-.225.126-.58.431-.811.427-1.161-.023-1.817.596-.576 1.303.128.072.358.222.01.191a1.88 1.88 0 0 1-.52-.152c-1.622-.877-.84-2.862.799-4.385.936-.87 2.058-1.454 2.837-2.136.55-.48.778-.867.685-1.591-.085-.659-.27-1.16-.664-1.522.205.505.528 1.871.185 2.328-.43.574-1.726 1.068-2.297 1.49-1.305.966-2.055 1.69-3.052 3.063-.547-1.998-.685-3.776-.723-5.835-.275 2.26-.308 4.42-.14 6.76H46.26Zm0 10.975v5.724h.02c2.472 0 4.662-2.334 6.35-4.105l-1.848-3.178c-.497.674-.953 1.601-1.491 1.577-.717-.012-1.872-.017-3.031-.019Z" fill="#000"/><path fill-rule="evenodd" clip-rule="evenodd" d="M46.103 0c7.24 0 13.97 2.188 19.565 5.938-.336.348-.657.693-.954 1.023a33.65 33.65 0 0 0-18.61-5.58 33.649 33.649 0 0 0-18.415 5.452c-.3-.331-.623-.676-.961-1.022A35.023 35.023 0 0 1 46.103 0Zm27.552 13.298a35.247 35.247 0 0 1 3.498 5.318 79.405 79.405 0 0 0-1.768-.338 33.803 33.803 0 0 0-1.669-2.6 25.35 25.35 0 0 0-.06-2.38Zm6.098 11.56c.32 1.04.591 2.101.814 3.18-.573-.257-1.106-.497-1.572-.708-.104-.437-.216-.87-.337-1.3.364-.392.73-.781 1.095-1.172Zm1.505 11.968a35.172 35.172 0 0 1-.943 6.648l-1.206-.91c.37-1.661.617-3.37.732-5.114l1.417-.624ZM76.65 52.678a35.24 35.24 0 0 1-1.955 3.035L73.8 54.59c.47-.669.915-1.356 1.336-2.06l1.514.148Zm-4.073 5.7a35.237 35.237 0 0 1-4.661 4.431l-.544-1.332a33.976 33.976 0 0 0 3.67-3.454l1.535.355Zm-6.584 5.85a34.988 34.988 0 0 1-15.494 5.884c.578-.365 1.036-.877 1.425-1.607a33.61 33.61 0 0 0 12.579-4.942l1.49.664Zm-23.896 5.93a34.99 34.99 0 0 1-15.758-5.846l1.494-.666a33.61 33.61 0 0 0 12.796 4.917c.399.73.87 1.237 1.468 1.596ZM24.53 62.996a35.34 35.34 0 0 1-4.846-4.557l1.537-.356a33.702 33.702 0 0 0 3.85 3.584l-.541 1.33ZM17.66 55.92a35.269 35.269 0 0 1-2.087-3.212l1.515-.148c.46.767.949 1.514 1.466 2.24l-.894 1.12Zm-5.72-12.246a35.17 35.17 0 0 1-.998-6.987l1.414.623c.115 1.864.381 3.687.787 5.457l-1.204.907Zm-.333-15.48c.246-1.22.555-2.416.924-3.586l.722.774.368.393a33.641 33.641 0 0 0-.448 1.715l-1.566.704Zm3.407-9.505a35.262 35.262 0 0 1 3.882-5.817c-.07.818-.104 1.62-.1 2.38a33.845 33.845 0 0 0-2.012 3.09c-.509.094-1.056.2-1.628.318l-.142.03ZM29.778 70.78c-10.07.08-20.943 1.528-27.797-1.128 5.27.964 18.276.056 21.337-.706-2.794-2.175-8.864-7.764-9.85-11.422 1.063 1.91 9.38 10.037 16.31 13.255Zm32.645 0c10.07.08 20.943 1.528 27.797-1.128-5.27.964-18.276.056-21.337-.706 2.794-2.175 8.864-7.764 9.85-11.422-1.063 1.91-9.38 10.037-16.31 13.255ZM7.697 75.683 7.1 77.239H6.92a.737.737 0 0 0 .036-.19.166.166 0 0 0-.114-.168c-.075-.03-.22-.044-.436-.044h-1.89v5.769c0 .218.056.374.168.471.112.097.315.16.61.19h.131v.146l-.167-.011-.929-.056h-.45l-.929.056h-.167l.012-.135h.131c.295-.03.499-.09.61-.179.112-.089.168-.25.168-.482v-5.77H1.659c-.24 0-.425.041-.556.124-.132.081-.277.283-.437.603H.523l.598-1.554h.18a.738.738 0 0 0-.037.19c0 .082.038.138.114.168.076.03.221.044.436.044h1.89v-1.248c0-.219-.056-.375-.168-.472-.111-.099-.315-.162-.61-.192h-.131v-.145l.167.01.929.057h.45l.929-.056h.167l-.012.134h-.131c-.295.03-.498.09-.61.18-.112.09-.167.25-.167.484v1.248H6.56c.24 0 .425-.04.556-.123.132-.082.277-.283.437-.604h.143Zm9.028 7.729-.167-.011-.929-.056h-.45l-.93.056h-.167l.013-.135h.131c.295-.03.498-.09.61-.179.111-.089.167-.251.167-.482v-2.56h-4.376v2.56c0 .216.056.373.167.471.112.097.315.16.61.19h.132v.146l-.168-.011-.928-.056h-.45l-.93.056h-.167l.012-.135h.132c.295-.03.498-.09.61-.179.111-.089.167-.251.167-.482V77.15c0-.216-.056-.372-.168-.471-.111-.097-.314-.16-.61-.19h-.131v-.146l.167.011.93.056h.45l.928-.055h.168l-.012.134h-.132c-.295.03-.498.09-.61.179-.111.091-.167.251-.167.484v1.82h4.376v-1.82c0-.218-.056-.374-.167-.473-.112-.097-.315-.16-.61-.19h-.131v-.146l.167.011.928.056h.451l.929-.055h.167l-.012.134h-.132c-.294.03-.498.09-.61.179-.11.09-.167.251-.167.482v5.455c0 .216.056.373.168.471.111.097.315.16.61.19h.131v.146Zm-1.722-3.725v-.357h-4.376v.357h4.376Zm9.016 2.338c-.183.315-.31.583-.382.8-.056.25-.104.443-.144.587l-1.877-.067H19.75l-.932.067h-.168l.012-.134h.132c.295-.03.498-.09.61-.18.111-.09.167-.251.167-.484v-5.462c0-.218-.056-.374-.167-.471-.112-.1-.315-.162-.61-.192h-.132l-.012-.146.168.011.932.056h3.73l.228 1.208h-.167c-.104-.382-.21-.618-.317-.706-.108-.088-.345-.133-.712-.133h-2.128v2.55h2.702v.358h-2.702v2.618c0 .305.03.49.09.553.06.063.233.095.52.095h1.28c.422 0 .72-.056.896-.168.175-.111.39-.357.646-.738l.203-.022Zm16.322-5.693-.012.134h-.132c-.295.03-.498.09-.61.18-.111.089-.167.251-.167.482v.19c0 1.52-.171 2.76-.514 3.725-.423 1.189-1.132 2.061-2.128 2.615a4.179 4.179 0 0 1-1.423-1.298c-.343-.484-.614-1.066-.813-1.744a6.06 6.06 0 0 1-.814 1.733c-.39.56-.864.996-1.422 1.309-.997-.554-1.706-1.422-2.129-2.604-.343-.957-.514-2.202-.514-3.736v-.19c0-.216-.056-.375-.17-.472-.113-.096-.318-.16-.617-.19h-.134v-.134h.168l.932.067h.455l.932-.067h.168l-.012.134h-.132c-.295.03-.498.09-.61.18-.111.089-.167.251-.167.482v.157c0 1.765.155 3.14.466 4.123.311.984.766 1.637 1.364 1.959.59-.315 1.042-.971 1.357-1.97.315-.998.472-2.37.472-4.112v-.157c0-.216-.056-.375-.167-.472-.112-.096-.315-.16-.61-.19h-.132v-.134h.168l.928.067h.45l.93-.067h.167l-.012.134h-.132c-.295.03-.498.09-.61.18-.111.089-.167.251-.167.482v.157c0 1.765.155 3.14.466 4.123.311.984.766 1.637 1.364 1.959.59-.315 1.042-.971 1.357-1.97.315-.998.472-2.37.472-4.112v-.157c0-.216-.056-.375-.17-.472-.113-.096-.318-.16-.617-.19h-.134v-.134h.168l.932.067h.455l.932-.067h.168Zm3.778-1.152a1.272 1.272 0 0 0-.73.682h-.095a1.272 1.272 0 0 0-.73-.682v-.09c.344-.133.587-.36.73-.682h.096c.143.321.386.549.73.683v.09Zm.55 8.232-.167-.011-.933-.056h-.454l-.933.056h-.167l.012-.135h.131c.295-.03.499-.09.61-.179.112-.089.167-.251.167-.482V77.15c0-.216-.055-.372-.167-.471-.111-.097-.315-.16-.61-.19h-.131v-.146l.167.011.933.056h.454l.933-.055h.167l-.012.134h-.133c-.3.03-.505.09-.618.179-.114.09-.17.251-.17.482v5.455c0 .216.056.373.17.471.114.097.319.16.618.19h.133v.146Zm8.49-7.729-.598 1.555h-.18a.733.733 0 0 0 .037-.19.166.166 0 0 0-.114-.168c-.076-.03-.221-.044-.436-.044h-1.89v5.769c0 .218.056.374.168.471.111.097.315.16.61.19h.131v.146l-.167-.011-.929-.056h-.45l-.93.056h-.166l.012-.135h.131c.295-.03.498-.09.61-.179.111-.089.167-.25.167-.482v-5.77h-2.044c-.24 0-.425.041-.556.124-.132.081-.277.283-.437.603h-.143l.598-1.554h.179a.736.736 0 0 0-.036.19c0 .082.038.138.114.168.075.03.22.044.436.044h1.89v-1.248c0-.219-.056-.375-.168-.472-.112-.099-.315-.162-.61-.192h-.131v-.145l.167.01.929.057h.45l.929-.056h.167l-.012.134h-.131c-.295.03-.499.09-.61.18-.112.09-.168.25-.168.484v1.248h2.045c.24 0 .424-.04.556-.123.132-.082.277-.283.437-.604h.143Zm8.215 5.783-.192 1.487c-.223.157-.584.291-1.082.403a6.626 6.626 0 0 1-1.453.168c-1.22 0-2.232-.321-3.037-.962-.837-.664-1.255-1.521-1.255-2.573 0-1.021.402-1.897 1.207-2.628.838-.753 1.866-1.13 3.085-1.13.423 0 .81.049 1.16.146.351.097.706.198 1.064.302a.443.443 0 0 0 .228-.056l.083 1.431h-.131c-.184-.581-.498-.995-.945-1.24-.39-.217-.928-.325-1.614-.325-.917 0-1.664.34-2.242 1.023-.578.682-.867 1.504-.867 2.466 0 .962.343 1.756 1.028 2.382.662.605 1.46.906 2.392.906.717 0 1.255-.119 1.614-.358.423-.275.674-.756.753-1.442h.204Zm9.601 1.946-.167-.011-.929-.056h-.45l-.929.056h-.167l.012-.135h.131c.295-.03.499-.09.61-.179.112-.089.168-.251.168-.482v-2.56h-4.377v2.56c0 .216.056.373.168.471.111.097.314.16.61.19h.13v.146l-.167-.011-.928-.056h-.45l-.93.056h-.167l.012-.135h.132c.295-.03.498-.09.61-.179.111-.089.167-.251.167-.482V77.15c0-.216-.056-.372-.167-.471-.112-.097-.315-.16-.61-.19h-.132v-.146l.168.011.928.056h.45l.93-.055h.167l-.012.134h-.132c-.294.03-.498.09-.61.179-.111.091-.167.251-.167.484v1.82h4.377v-1.82c0-.218-.056-.374-.168-.473-.111-.097-.315-.16-.61-.19h-.131v-.146l.167.011.929.056h.45l.929-.055h.167l-.012.134h-.131c-.295.03-.498.09-.61.179-.112.09-.167.251-.167.482v5.455c0 .216.055.373.167.471.112.097.315.16.61.19h.131v.146Zm-1.721-3.725v-.357h-4.377v.357h4.377Zm9.015 2.338c-.183.315-.31.583-.382.8-.056.25-.104.443-.144.587l-1.877-.067H74l-.933.067H72.9l.012-.134h.132c.295-.03.498-.09.61-.18.111-.09.167-.251.167-.484v-5.462c0-.218-.056-.374-.167-.471-.112-.1-.315-.162-.61-.192h-.132l-.012-.146.168.011.933.056h3.73l.227 1.208h-.167c-.104-.382-.21-.618-.317-.706-.108-.088-.345-.133-.711-.133h-2.129v2.55h2.703v.358h-2.703v2.618c0 .305.03.49.09.553.06.063.233.095.52.095h1.28c.422 0 .721-.056.896-.168.176-.111.391-.357.646-.738l.203-.022Zm13.727 2.326c-.047.112-.27.248-.67.409-.398.16-.8.24-1.207.24-.925 0-1.921-.362-2.99-1.085-.613-.417-1.454-1.13-2.522-2.136-.901-.85-1.499-1.335-1.794-1.454h-1.052v2.28c0 .216.056.373.167.471.112.097.315.16.61.19h.132v.146l-.168-.011-.928-.056h-.45l-.93.056h-.167l.012-.135h.132c.294-.03.498-.09.61-.179.111-.089.167-.251.167-.482V77.15c0-.216-.056-.372-.168-.471-.111-.097-.314-.16-.61-.19h-.131v-.146l.167.011.447.04c.131.01.293.016.484.016.135 0 .454-.009.96-.028.505-.018.806-.028.901-.028.804 0 1.44.166 1.91.498.468.332.703.748.703 1.247 0 .477-.161.897-.484 1.258-.323.362-.751.632-1.286.811.192.12.642.518 1.352 1.197.797.76 1.462 1.35 1.996 1.767.861.671 1.65 1.126 2.368 1.365.303.097.626.145.968.145a3.86 3.86 0 0 0 1.47-.29Zm-7.174-5.995c0-.477-.18-.88-.538-1.207-.399-.358-.94-.537-1.626-.537-.39 0-.638.028-.742.084-.103.055-.155.21-.155.464v2.897h1.734c.398-.157.72-.38.962-.672.243-.29.365-.633.365-1.029Zm3.48-2.166c.153 0 .303.04.45.118.145.079.26.191.34.338a.922.922 0 0 1 .002.91.85.85 0 0 1-.338.34.924.924 0 0 1-.908 0 .917.917 0 0 1-.336-1.25.835.835 0 0 1 .342-.338.935.935 0 0 1 .449-.118Zm0 .151a.775.775 0 0 0-.374.099.71.71 0 0 0-.285.282.773.773 0 0 0-.103.382c0 .13.034.257.101.378a.77.77 0 0 0 .662.383c.13 0 .257-.034.378-.101a.711.711 0 0 0 .282-.282.77.77 0 0 0-.002-.76.708.708 0 0 0-.285-.282.778.778 0 0 0-.373-.099Zm-.4 1.266v-.982h.337c.116 0 .2.01.251.027.052.019.092.05.123.096a.26.26 0 0 1-.031.33.3.3 0 0 1-.204.09.267.267 0 0 1 .084.053c.04.039.088.104.145.195l.12.191h-.194l-.087-.154a.789.789 0 0 0-.166-.229c-.028-.022-.07-.033-.127-.033h-.093v.416h-.158Zm.159-.552h.192c.092 0 .155-.014.188-.041a.133.133 0 0 0 .05-.11.13.13 0 0 0-.024-.077.144.144 0 0 0-.067-.051.493.493 0 0 0-.16-.017h-.18v.296Z" fill="#000"/></svg>