<svg width="34" height="13" fill="none" xmlns="http://www.w3.org/2000/svg"><path d="m20.437 11.17.485-.737 2.092 2.449h2.843l-3.7-4.327 3.302-5.008h-2.57L20.436 7.27V.264h-2.112v12.618h2.112V11.17Zm-8.143 0 .485-.73 2.092 2.449h2.843l-3.7-4.334 3.302-5.008h-2.57L12.293 7.27V.264h-2.112v12.618h2.112V11.17Zm12.394-3.074c0 2.706 2.086 4.904 4.656 4.904S34 10.802 34 8.096c0-2.705-2.086-4.903-4.656-4.903s-4.656 2.19-4.656 4.903ZM4.656 3.193C2.086 3.193 0 5.383 0 8.096 0 10.802 2.086 13 4.656 13s4.656-2.198 4.656-4.904c.007-2.712-2.079-4.903-4.656-4.903ZM4.616 0C4.032 0 3.56.494 3.56 1.113c0 .612.472 1.113 1.056 1.113.585 0 1.056-.501 1.056-1.113C5.672.493 5.201 0 4.616 0ZM7.2 0c-.585 0-1.056.494-1.056 1.113 0 .612.471 1.113 1.056 1.113.584 0 1.056-.501 1.056-1.113C8.263.493 7.784 0 7.2 0ZM2.072 0c-.584 0-1.056.494-1.056 1.113 0 .612.472 1.113 1.056 1.113.585 0 1.056-.501 1.056-1.113C3.128.493 2.657 0 2.072 0Zm.04 8.096c0-1.474 1.143-2.678 2.544-2.678S7.2 6.622 7.2 8.096c0 1.475-1.143 2.678-2.544 2.678S2.112 9.571 2.112 8.096Zm24.688 0c0-1.474 1.143-2.678 2.544-2.678s2.544 1.204 2.544 2.678c0 1.475-1.143 2.678-2.544 2.678S26.8 9.571 26.8 8.096Z" fill="#000"/></svg>